<svg xmlns="http://www.w3.org/2000/svg" xmlns:xlink="http://www.w3.org/1999/xlink" width="428" height="47" viewBox="0 0 428 47" fill="none"><path    style="mix-blend-mode:normal" fill="#FFFFFF"  d="M328.7 19.8857C328.7 19.2482 329.273 18.7315 329.98 18.7315L331.26 18.7315C331.967 18.7315 332.54 19.2482 332.54 19.8857L332.54 29.119C332.54 29.7564 331.967 30.2732 331.26 30.2732L329.98 30.2732C329.273 30.2732 328.7 29.7564 328.7 29.119L328.7 19.8857Z"></path><path    style="mix-blend-mode:normal" fill="#FFFFFF"  d="M335.1 17.5773C335.1 16.9399 335.673 16.4232 336.38 16.4232L337.66 16.4232C338.367 16.4232 338.94 16.9399 338.94 17.5773L338.94 29.119C338.94 29.7564 338.367 30.2732 337.66 30.2732L336.38 30.2732C335.673 30.2732 335.1 29.7564 335.1 29.119L335.1 17.5773Z"></path><path    style="mix-blend-mode:normal" fill="#FFFFFF"  d="M322.3 23.9252C322.3 23.2878 322.873 22.7711 323.58 22.7711L324.86 22.7711C325.567 22.7711 326.14 23.2878 326.14 23.9252L326.14 29.119C326.14 29.7564 325.567 30.2732 324.86 30.2732L323.58 30.2732C322.873 30.2732 322.3 29.7564 322.3 29.119L322.3 23.9252Z"></path><path    style="mix-blend-mode:normal" fill="#FFFFFF"  d="M315.9 26.8107C315.9 26.1732 316.473 25.6565 317.18 25.6565L318.46 25.6565C319.167 25.6565 319.74 26.1732 319.74 26.8107L319.74 29.119C319.74 29.7564 319.167 30.2732 318.46 30.2732L317.18 30.2732C316.473 30.2732 315.9 29.7564 315.9 29.119L315.9 26.8107Z"></path><g opacity="0"><path d="M345.9 16.7115L365.52 16.7115L365.52 31.1315L345.9 31.1315L345.9 16.7115Z"  style="mix-blend-mode:normal" fill="#FFFFFF" ></path></g><path d="M355.709 31.1315C355.896 31.1315 356.058 31.0448 356.39 30.7153L358.469 28.6863C358.597 28.5562 358.631 28.3655 358.512 28.2094C357.958 27.481 356.91 26.848 355.709 26.848C354.473 26.848 353.425 27.507 352.871 28.2614C352.786 28.4002 352.82 28.5562 352.956 28.6863L355.027 30.7153C355.359 31.0362 355.521 31.1315 355.709 31.1315ZM350.724 26.4145C350.911 26.5966 351.141 26.5705 351.312 26.3798C352.334 25.2265 354.004 24.3854 355.709 24.3941C357.43 24.3854 359.1 25.2526 360.139 26.4058C360.293 26.5879 360.506 26.5792 360.693 26.4058L362.014 25.0705C362.15 24.9317 362.167 24.741 362.039 24.5849C360.753 22.9807 358.367 21.7754 355.709 21.7754C353.05 21.7754 350.664 22.9807 349.378 24.5849C349.25 24.741 349.258 24.9143 349.403 25.0705L350.724 26.4145ZM347.188 22.79C347.358 22.9547 347.597 22.9547 347.759 22.7813C349.855 20.5181 352.616 19.3215 355.709 19.3215C358.819 19.3215 361.596 20.5268 363.675 22.79C363.829 22.946 364.059 22.9374 364.229 22.7726L365.405 21.576C365.558 21.4199 365.55 21.2292 365.431 21.0818C363.428 18.5672 359.662 16.7202 355.709 16.7202C351.763 16.7202 347.98 18.5672 345.987 21.0818C345.867 21.2292 345.867 21.4199 346.012 21.576L347.188 22.79Z"  style="mix-blend-mode:normal" fill="#FFFFFF" ></path><g opacity="0.35"><path fill-rule="evenodd"  fill="rgba(255, 255, 255, 1)" style="mix-blend-mode:normal" d="M395.9 17L378.9 17C376.691 17 374.9 18.7909 374.9 21L374.9 26C374.9 28.2091 376.691 30 378.9 30L395.9 30C398.109 30 399.9 28.2091 399.9 26L399.9 21C399.9 18.7909 398.109 17 395.9 17ZM375.955 21C375.955 19.3736 377.274 18.0551 378.9 18.0551L395.9 18.0551C397.526 18.0551 398.845 19.3736 398.845 21L398.845 26C398.845 27.6264 397.526 28.9449 395.9 28.9449L378.9 28.9449C377.274 28.9449 375.955 27.6264 375.955 26L375.955 21Z"></path></g><g opacity="0.4"><path d="M400.9 22L400.9 26.2203C401.749 25.8629 402.301 25.0314 402.301 24.1102C402.301 23.1889 401.749 22.3574 400.9 22Z"  style="mix-blend-mode:normal" fill="#FFFFFF" ></path></g><path    style="mix-blend-mode:normal" fill="#FFFFFF"  d="M378.9 19L395.9 19C397.005 19 397.9 19.8954 397.9 21L397.9 26C397.9 27.1046 397.005 28 395.9 28L378.9 28C377.795 28 376.9 27.1046 376.9 26L376.9 21C376.9 19.8954 377.795 19 378.9 19Z"></path><g transform="translate(5 0) scale(0.95)"><path    style="mix-blend-mode:normal" fill="#FFFFFF"  d="M27.744 31.792L31.128 26.086L31.074 26.05Q30.75 26.338 30.174 26.518Q29.598 26.698 28.932 26.698Q27.744 26.698 26.808 26.14Q25.872 25.582 25.35 24.583Q24.828 23.584 24.828 22.306Q24.828 21.01 25.404 20.002Q25.98 18.994 27.006 18.427Q28.032 17.86 29.346 17.86Q30.642 17.86 31.65 18.427Q32.658 18.994 33.225 20.002Q33.792 21.01 33.792 22.306Q33.792 23.512 33.423 24.637Q33.054 25.762 31.992 27.598L29.562 31.792L27.744 31.792ZM29.22 25.258Q30.516 25.258 31.353 24.439Q32.19 23.62 32.19 22.306Q32.19 20.974 31.38 20.137Q30.57 19.3 29.292 19.3Q28.032 19.3 27.231 20.146Q26.43 20.992 26.43 22.306Q26.43 23.62 27.213 24.439Q27.996 25.258 29.22 25.258ZM37.968 24.052L36.096 24.052L36.096 22.18L37.968 22.18L37.968 24.052ZM37.968 31.792L36.096 31.792L36.096 29.902L37.968 29.902L37.968 31.792ZM47.562 27.292L49.254 27.292L49.254 28.714L47.562 28.714L47.562 31.792L45.996 31.792L45.996 28.714L39.768 28.714L39.768 27.526L45.312 18.112L47.562 18.112L47.562 27.292ZM45.996 19.84L41.622 27.292L45.996 27.292L45.996 19.84ZM55.032 31.792L53.466 31.792L53.466 19.93L50.802 21.334L50.802 19.696L53.862 18.112L55.032 18.112L55.032 31.792Z"></path></g></svg>